<svg width="141" height="47" viewBox="0 0 141 47" fill="none" xmlns="http://www.w3.org/2000/svg">
<path d="M1.43945 37.8287C0.519451 37.0295 0.40445 36.1099 1.09445 35.0687L2.16345 33.4343C2.78445 32.4661 3.65845 32.3083 4.78445 32.962C4.87645 32.9863 5.31346 33.241 6.09546 33.7249C7.15246 34.2822 8.21046 34.5604 9.26846 34.5604C10.0965 34.5604 10.7395 34.391 11.1995 34.0518C11.6595 33.713 11.8895 33.2773 11.8895 32.7443C11.8895 32.3812 11.7975 32.0543 11.6135 31.7637C11.4295 31.4731 11.1365 31.1952 10.7345 30.9282C10.3315 30.6623 9.94146 30.4378 9.56146 30.2564C9.18246 30.0746 8.67047 29.8388 8.02747 29.5482C7.38347 29.2576 6.85446 29.0156 6.44046 28.8219C4.76246 27.9745 3.43445 27.0058 2.45645 25.9164C1.47945 24.8266 0.991453 23.3617 0.991453 21.5216C0.991453 19.149 1.81845 17.2361 3.47446 15.7835C5.15246 14.307 7.25646 13.5684 9.78546 13.5684C11.0505 13.5684 12.2975 13.7563 13.5285 14.1314C14.7575 14.5069 15.7294 14.9611 16.4424 15.4933C17.3844 16.196 17.5805 17.1037 17.0285 18.2171L16.2005 19.9239C15.6945 21.0134 14.8325 21.2438 13.6145 20.614C12.0735 19.8148 10.7745 19.4153 9.71646 19.4153C7.92346 19.4153 7.02646 20.0208 7.02646 21.2311C7.02646 21.5942 7.11846 21.9272 7.30246 22.2298C7.48646 22.5327 7.78546 22.811 8.19946 23.0653C8.61346 23.3196 8.99746 23.5373 9.35446 23.719C9.71046 23.9004 10.2225 24.1311 10.8895 24.409C11.5565 24.688 12.0845 24.9238 12.4755 25.1172C14.1315 25.8678 15.4534 26.7943 16.4424 27.8957C17.4304 28.9975 17.9245 30.4686 17.9245 32.3083C17.9245 34.584 17.1435 36.5093 15.5795 38.0827C14.0395 39.6325 11.9355 40.407 9.26846 40.407C7.68246 40.407 6.17546 40.1404 4.75046 39.6082C3.30146 39.0517 2.19845 38.4585 1.43945 37.8287Z" fill="#222222"/>
<path d="M20.7783 44.7092V24.9398C20.7783 23.7418 21.3473 23.1422 22.4853 23.1422H23.8813C24.4193 23.1422 24.8383 23.2728 25.1383 23.5343C25.4383 23.7959 25.5883 24.1554 25.5883 24.6129V24.9724L25.5573 25.2989H25.6193C25.8873 24.9285 26.1363 24.6347 26.3633 24.4166C27.3363 23.3707 28.7013 22.8153 30.4603 22.75C32.6323 22.75 34.3703 23.567 35.6733 25.201C36.9963 26.7914 37.6593 28.9151 37.6593 31.5729C37.6593 34.2089 36.9553 36.3329 35.5493 37.9444C34.1423 39.557 32.3633 40.3627 30.2113 40.3627C29.4253 40.3627 28.6853 40.21 27.9933 39.9053C27.2993 39.6002 26.8083 39.2737 26.5183 38.9247L26.1463 38.4345H26.0843C26.1253 38.9573 26.1463 39.4369 26.1463 39.8723V44.7085C26.1463 45.9064 25.5773 46.5057 24.4393 46.5057H22.4843C21.3473 46.5065 20.7783 45.9072 20.7783 44.7092ZM25.9913 31.6708C25.9913 32.8038 26.2753 33.7572 26.8453 34.5303C27.4133 35.3037 28.1743 35.6901 29.1263 35.6901C30.0363 35.6901 30.7863 35.3255 31.3753 34.5952C31.9653 33.8657 32.2603 32.8912 32.2603 31.6705C32.2603 30.4287 31.9703 29.427 31.3913 28.6644C30.8113 27.9019 30.0563 27.5206 29.1263 27.5206C28.1953 27.5206 27.4393 27.8801 26.8603 28.5991C26.2813 29.3182 25.9913 30.3423 25.9913 31.6708Z" fill="#222222"/>
<path d="M49.0482 22.75C51.6342 22.75 53.7852 23.5782 55.5022 25.2336C57.2602 26.8676 58.1402 28.9913 58.1402 31.6055C58.1402 34.198 57.2712 36.3112 55.5332 37.9448C53.7752 39.5574 51.6232 40.3631 49.0792 40.3631C46.5342 40.3631 44.3822 39.5574 42.6242 37.9448C40.8862 36.3112 40.0182 34.1983 40.0182 31.6055C40.0182 29.0352 40.8862 26.9115 42.6242 25.2336C44.3412 23.5782 46.4822 22.75 49.0482 22.75ZM45.4482 31.6059C45.4482 32.8042 45.7942 33.7786 46.4882 34.5306C47.1812 35.282 48.0442 35.6578 49.0792 35.6578C50.1132 35.6578 50.9772 35.282 51.6702 34.5306C52.3632 33.779 52.7102 32.8042 52.7102 31.6059C52.7102 30.3862 52.3632 29.3897 51.6702 28.6158C50.9772 27.8427 50.1132 27.456 49.0792 27.456C48.0442 27.456 47.1812 27.8427 46.4882 28.6158C45.7942 29.3893 45.4482 30.3859 45.4482 31.6059Z" fill="#222222"/>
<path d="M61.3357 38.1743V24.9404C61.3357 23.7425 61.9037 23.1428 63.0417 23.1428H64.7797C65.8967 23.1428 66.4557 23.7421 66.4557 24.9404V25.2346L66.4247 25.6594H66.4867C67.5827 23.7207 69.2797 22.751 71.5757 22.751C75.4027 22.751 77.3167 24.8537 77.3167 29.0576V38.1747C77.3167 39.373 76.7467 39.9719 75.6097 39.9719H73.6547C72.5167 39.9719 71.9477 39.373 71.9477 38.1747V30.1035C71.9477 28.6223 71.3587 27.8815 70.1797 27.8815C69.0827 27.8815 68.2287 28.2957 67.6197 29.1233C67.0087 29.9511 66.7037 31.0297 66.7037 32.3582V38.1747C66.7037 39.373 66.1347 39.9719 64.9977 39.9719H63.0427C61.9047 39.9715 61.3357 39.3726 61.3357 38.1743Z" fill="#222222"/>
<path d="M87.6506 22.7508C88.7676 22.7508 89.6617 22.914 90.3347 23.2409C91.0067 23.5678 91.4676 23.8943 91.7156 24.2215L91.8396 24.4174H91.9016C91.8806 24.2654 91.8706 24.0147 91.8706 23.6657V18.4046C91.8706 17.2067 92.4396 16.6074 93.5776 16.6074H95.5327C96.6697 16.6074 97.2386 17.2067 97.2386 18.4046V38.1745C97.2386 39.3728 96.6697 39.9717 95.5327 39.9717H93.9186C92.7806 39.9717 92.2126 39.4275 92.2126 38.3377V38.1418L92.2437 37.9129H92.1816C91.9326 38.2616 91.7046 38.5449 91.4986 38.7626C90.4846 39.8302 89.1706 40.3639 87.5576 40.3639C85.4056 40.3639 83.6576 39.5581 82.3136 37.9456C81.0096 36.312 80.3586 34.177 80.3586 31.541C80.3586 28.9054 81.0306 26.7817 82.3756 25.1691C83.7406 23.5569 85.4986 22.7508 87.6506 22.7508ZM86.6266 34.5474C87.2056 35.3103 87.9606 35.6909 88.8916 35.6909C89.8226 35.6909 90.5776 35.3317 91.1566 34.6123C91.7356 33.8937 92.0256 32.8699 92.0256 31.5406C92.0256 30.4084 91.7416 29.455 91.1726 28.6816C90.6036 27.9085 89.8426 27.5214 88.8916 27.5214C87.9806 27.5214 87.2316 27.8867 86.6416 28.6163C86.0526 29.3465 85.7576 30.321 85.7576 31.541C85.7576 32.7828 86.0476 33.7852 86.6266 34.5474Z" fill="#222222"/>
<path d="M101.365 38.1741V24.9402C101.365 23.7423 101.934 23.1426 103.072 23.1426H105.027C106.165 23.1426 106.734 23.7419 106.734 24.9402V38.1741C106.734 39.3724 106.165 39.9713 105.027 39.9713H103.072C101.934 39.9713 101.365 39.3724 101.365 38.1741Z" fill="#222222"/>
<path d="M111.667 38.8274C110.715 38.2829 110.571 37.455 111.233 36.3438L111.698 35.5921C112.257 34.7646 113.043 34.5905 114.057 35.0697C115.339 35.6578 116.353 35.952 117.098 35.952C118.07 35.952 118.556 35.6364 118.556 35.0044C118.556 34.6997 118.344 34.4327 117.92 34.2038C117.496 33.9752 116.828 33.7089 115.918 33.4035C112.67 32.4885 111.057 30.7131 111.077 28.0767C111.077 26.4214 111.698 25.1146 112.94 24.1554C114.201 23.2187 115.794 22.75 117.718 22.75C119.27 22.75 120.78 23.1095 122.248 23.8286C123.179 24.3299 123.386 25.1357 122.869 26.2469L122.497 27.0312C122.063 27.9679 121.307 28.2295 120.232 27.8152C119.115 27.3798 118.204 27.1618 117.501 27.1618C116.549 27.1618 116.074 27.456 116.074 28.0441C116.074 28.3274 116.26 28.5785 116.632 28.7958C117.004 29.0138 117.465 29.1988 118.013 29.3512C118.561 29.5036 119.161 29.7162 119.813 29.9882C120.465 30.2611 121.064 30.5712 121.613 30.9195C122.161 31.2681 122.621 31.7804 122.994 32.4552C123.366 33.1307 123.552 33.9255 123.552 34.8405C123.552 36.4527 122.952 37.7812 121.752 38.8271C120.552 39.8512 118.96 40.3627 116.974 40.3627C115.132 40.3631 113.363 39.8516 111.667 38.8274Z" fill="#222222"/>
<path d="M125.134 31.5402C125.134 29.0134 125.889 26.9224 127.399 25.2663C128.93 23.5888 130.947 22.75 133.45 22.75C135.747 22.75 137.546 23.5129 138.85 25.0373C140.173 26.5193 140.836 28.4359 140.836 30.7889C140.836 31.2681 140.655 31.6988 140.293 32.0797C139.931 32.4613 139.512 32.6514 139.036 32.6514H130.627C130.813 33.6106 131.242 34.3511 131.915 34.8735C132.587 35.3962 133.399 35.6578 134.35 35.6578C135.302 35.6578 136.274 35.3962 137.267 34.8735C138.322 34.3725 139.088 34.6014 139.563 35.5599L139.998 36.4095C140.535 37.4993 140.339 38.3163 139.408 38.8605C137.753 39.8628 135.922 40.3638 133.916 40.3638C131.226 40.3638 129.085 39.4928 127.493 37.7496C125.92 36.0282 125.134 33.9585 125.134 31.5402ZM130.751 29.4165H135.529C135.529 28.6978 135.328 28.0985 134.924 27.6193C134.521 27.1404 133.988 26.9006 133.326 26.9006C131.961 26.9002 131.102 27.7394 130.751 29.4165Z" fill="#222222"/>
<path fill-rule="evenodd" clip-rule="evenodd" d="M117.024 10.3251C117.004 10.0777 117.017 9.24991 116.163 8.65561C115.854 8.44051 102.746 0.443307 102.746 0.443307C102.746 0.443307 101.726 -0.218403 100.525 0.578607C100.325 0.711807 99.7093 1.10501 99.6183 2.24811C99.6053 2.41391 99.6183 18.4021 99.6183 18.4021C99.6183 18.4021 99.6033 19.5152 100.57 20.1166C100.869 20.3028 101.522 20.7936 102.927 20.1616L116.163 12.1296C116.163 12.1296 117.13 11.6036 117.024 10.3251Z" fill="#F29820"/>
</svg>
